Coordinates
version=1
nRows=17
nColumns=40
inDegrees=yes

Units are S.I. units (second, meters, Newtons, ...)
If the header above contains a line with 'inDegrees', this indicates whether rotational values are in degrees (yes) or radians (no).

endheader
time	pelvis_tilt	pelvis_list	pelvis_rotation	pelvis_tx	pelvis_ty	pelvis_tz	hip_flexion_r	hip_adduction_r	hip_rotation_r	knee_angle_r	knee_angle_r_beta	ankle_angle_r	subtalar_angle_r	mtp_angle_r	hip_flexion_l	hip_adduction_l	hip_rotation_l	knee_angle_l	knee_angle_l_beta	ankle_angle_l	subtalar_angle_l	mtp_angle_l	lumbar_extension	lumbar_bending	lumbar_rotation	arm_flex_r	arm_add_r	arm_rot_r	elbow_flex_r	pro_sup_r	wrist_flex_r	wrist_dev_r	arm_flex_l	arm_add_l	arm_rot_l	elbow_flex_l	pro_sup_l	wrist_flex_l	wrist_dev_l
      3.69000000	     -9.66597110	    -10.53292922	      3.58527213	     -0.32228078	      0.79980063	     -0.97983976	     59.13605642	      0.87772572	     -6.74617755	     10.12598749	      0.17673182	    -19.74579918	      0.00000000	      0.00000000	     57.50156273	     -7.72904547	      1.99201231	     78.46334125	      1.36944365	     19.32482215	      0.00000000	      0.00000000	    -10.61082649	      2.91257745	      4.09847567	     89.90859271	    -12.87589345	     17.98495807	     29.65401942	     80.15060563	      0.00000000	      0.00000000	     89.94382509	    -26.85734462	     18.18215028	     44.88438429	     83.47037476	      0.00000000	      0.00000000
      3.69500000	     -9.68270065	    -10.57763295	      3.65206413	     -0.32201507	      0.80131671	     -0.97995748	     59.04071904	      0.83694883	     -6.70776774	     10.15346292	      0.17721136	    -19.79264859	      0.00000000	      0.00000000	     57.35848369	     -7.78189658	      1.95885704	     78.15778347	      1.36411066	     19.17627423	      0.00000000	      0.00000000	    -10.50066824	      2.97106892	      4.01749419	     89.90788003	    -12.87231702	     18.05148034	     29.59376732	     80.18749844	      0.00000000	      0.00000000	     89.94386758	    -26.92853388	     18.19811115	     44.91479762	     83.48358080	      0.00000000	      0.00000000
      3.70000000	     -9.70445229	    -10.57718216	      3.68661841	     -0.32164629	      0.80283545	     -0.97994030	     58.94765128	      0.81210218	     -6.70976397	     10.16492671	      0.17741144	    -19.80786560	      0.00000000	      0.00000000	     57.17431227	     -7.81626361	      1.90672506	     77.82027358	      1.35822000	     19.01000735	      0.00000000	      0.00000000	    -10.38864419	      2.96738477	      3.95890835	     89.90735823	    -12.87154978	     18.11751983	     29.52215064	     80.22459706	      0.00000000	      0.00000000	     89.94367895	    -27.02072838	     18.20149156	     44.92878146	     83.49555511	      0.00000000	      0.00000000
      3.70500000	     -9.71827637	    -10.64605474	      3.76728053	     -0.32134171	      0.80438094	     -0.97998170	     58.83092546	      0.80136583	     -6.67794930	     10.15396199	      0.17722007	    -19.80997045	      0.00000000	      0.00000000	     57.04554528	     -7.88911957	      1.89479677	     77.52394036	      1.35304801	     18.86087308	      0.00000000	      0.00000000	    -10.27221683	      3.03705428	      3.91106371	     89.90654666	    -12.89240761	     18.13121703	     29.40431552	     80.24742976	      0.00000000	      0.00000000	     89.94349534	    -27.07319280	     18.21678562	     44.95970301	     83.50693407	      0.00000000	      0.00000000
      3.71000000	     -9.67010347	    -10.57647988	      3.84294770	     -0.32097859	      0.80610250	     -0.98018528	     58.62357690	      0.70562047	     -6.70311291	     10.09768738	      0.17623789	    -19.78273813	      0.00000000	      0.00000000	     56.74506130	     -7.79811838	      1.86070830	     77.12558621	      1.34609542	     18.59019727	      0.00000000	      0.00000000	    -10.22146110	      2.99266497	      3.77448905	     89.90672119	    -12.78243671	     18.20442468	     29.26528919	     80.31156262	      0.00000000	      0.00000000	     89.94342487	    -27.18664560	     18.27180610	     44.89606790	     83.53559271	      0.00000000	      0.00000000
      3.71500000	     -9.70720271	    -10.61382678	      3.81514808	     -0.32056429	      0.80759908	     -0.98004561	     58.54994031	      0.76458714	     -6.64723793	     10.10820829	      0.17642152	    -19.80132666	      0.00000000	      0.00000000	     56.58081554	     -7.91720570	      1.78783908	     76.82099486	      1.34077929	     18.45617250	      0.00000000	      0.00000000	    -10.08979867	      2.98463549	      3.81387181	     89.90634089	    -12.80218852	     18.21817639	     29.23190257	     80.33926300	      0.00000000	      0.00000000	     89.94328199	    -27.20649817	     18.26895942	     44.96954408	     83.54700554	      0.00000000	      0.00000000
      3.72000000	     -9.66801347	    -10.61816870	      3.86585563	     -0.32026669	      0.80930988	     -0.98018215	     58.40030421	      0.72835140	     -6.58706525	     10.12649808	      0.17674073	    -19.86878038	      0.00000000	      0.00000000	     56.32137690	     -7.95121346	      1.71704645	     76.44843606	      1.33427692	     18.26839134	      0.00000000	      0.00000000	    -10.04192273	      3.00072615	      3.74633761	     89.90503411	    -12.79879943	     18.28761599	     29.06240825	     80.37934725	      0.00000000	      0.00000000	     89.94314585	    -27.27884659	     18.28204498	     44.98654125	     83.56227191	      0.00000000	      0.00000000
      3.72500000	     -9.71163869	    -10.61118778	      3.87517980	     -0.31982273	      0.81076583	     -0.98014693	     58.32089084	      0.71573510	     -6.54737585	     10.13295035	      0.17685335	    -19.84541594	      0.00000000	      0.00000000	     56.16436985	     -7.99290080	      1.63823131	     76.13513587	      1.32880880	     18.10078188	      0.00000000	      0.00000000	     -9.89436044	      2.98461370	      3.73237456	     89.90487720	    -12.79865033	     18.31328379	     29.03491115	     80.41776781	      0.00000000	      0.00000000	     89.94304340	    -27.33587545	     18.28798108	     44.98260975	     83.57629507	      0.00000000	      0.00000000
      3.73000000	     -9.71384119	    -10.63576832	      3.90120913	     -0.31943711	      0.81240974	     -0.98016939	     58.20566266	      0.72171005	     -6.55149422	     10.14909449	      0.17713511	    -19.83264594	      0.00000000	      0.00000000	     55.97572644	     -8.04205132	      1.59178658	     75.82069142	      1.32332071	     17.92484116	      0.00000000	      0.00000000	     -9.79704315	      2.99849852	      3.70654040	     89.90417504	    -12.82631328	     18.33220859	     28.94994297	     80.44677754	      0.00000000	      0.00000000	     89.94291664	    -27.39775205	     18.28785698	     44.98898724	     83.58652208	      0.00000000	      0.00000000
      3.73500000	     -9.69351626	    -10.65537991	      3.95346841	     -0.31903428	      0.81404196	     -0.98020720	     58.07431506	      0.70251705	     -6.57424801	     10.16889806	      0.17748075	    -19.84407749	      0.00000000	      0.00000000	     55.73426496	     -8.07393065	      1.56406266	     75.44394779	      1.31674529	     17.73274343	      0.00000000	      0.00000000	     -9.70911619	      3.01338053	      3.66389006	     89.90328780	    -12.84501749	     18.42671879	     28.78518289	     80.49020850	      0.00000000	      0.00000000	     89.94274222	    -27.43256956	     18.33075328	     45.00956931	     83.60456646	      0.00000000	      0.00000000
      3.74000000	     -9.70969571	    -10.61785452	      3.96519522	     -0.31873964	      0.81564495	     -0.98018100	     57.98240126	      0.65589743	     -6.52833187	     10.20777556	      0.17815929	    -19.91696456	      0.00000000	      0.00000000	     55.52239831	     -8.06273930	      1.51483559	     75.07746596	      1.31034897	     17.54660156	      0.00000000	      0.00000000	     -9.60731032	      2.96894646	      3.62437911	     89.90299214	    -12.82676660	     18.53133795	     28.72061365	     80.53866103	      0.00000000	      0.00000000	     89.94277872	    -27.50039941	     18.33593845	     44.99006906	     83.61935612	      0.00000000	      0.00000000
      3.74500000	     -9.70369961	    -10.61840256	      3.95500490	     -0.31835997	      0.81723180	     -0.98015938	     57.88216380	      0.66396954	     -6.50358679	     10.25105323	      0.17891463	    -19.95978697	      0.00000000	      0.00000000	     55.30881343	     -8.11033520	      1.47091974	     74.74585416	      1.30456126	     17.37810745	      0.00000000	      0.00000000	     -9.50949169	      2.95901656	      3.62904090	     89.90238024	    -12.81563813	     18.61143855	     28.59270658	     80.57991972	      0.00000000	      0.00000000	     89.94260240	    -27.56144324	     18.35523812	     45.01949874	     83.63576228	      0.00000000	      0.00000000
      3.75000000	     -9.71576982	    -10.55687730	      3.95306198	     -0.31807037	      0.81888646	     -0.98017584	     57.78203397	      0.62085821	     -6.44614852	     10.27202514	      0.17928066	    -19.96746949	      0.00000000	      0.00000000	     55.05882141	     -8.08711890	      1.39258143	     74.33070357	      1.29731551	     17.17024057	      0.00000000	      0.00000000	     -9.40859484	      2.89006813	      3.55361629	     89.90081158	    -12.81215277	     18.79930386	     28.42151231	     80.64051405	      0.00000000	      0.00000000	     89.94246126	    -27.69371662	     18.38209709	     45.02702849	     83.65914694	      0.00000000	      0.00000000
      3.75500000	     -9.69599438	    -10.55923983	      3.94705084	     -0.31757315	      0.82041787	     -0.98021414	     57.69836049	      0.62875667	     -6.44644895	     10.36734215	      0.18094426	    -19.96524488	      0.00000000	      0.00000000	     54.82321696	     -8.13809413	      1.33719059	     74.01927416	      1.29188004	     17.03123674	      0.00000000	      0.00000000	     -9.32307024	      2.89787665	      3.54860571	     89.90023157	    -12.84514912	     18.92237478	     28.37162558	     80.68986265	      0.00000000	      0.00000000	     89.94231338	    -27.79343473	     18.42855467	     45.03033958	     83.68047667	      0.00000000	      0.00000000
      3.76000000	     -9.67186554	    -10.61495176	      3.98777246	     -0.31716417	      0.82203043	     -0.98030302	     57.57820207	      0.63438292	     -6.42839165	     10.43638657	      0.18214931	    -19.97315335	      0.00000000	      0.00000000	     54.61169385	     -8.19907042	      1.30044292	     73.70795261	      1.28644646	     16.88439355	      0.00000000	      0.00000000	     -9.23999729	      2.94994579	      3.50909068	     89.89939087	    -12.88770856	     19.03958164	     28.21346000	     80.72600935	      0.00000000	      0.00000000	     89.94217404	    -27.81218998	     18.43068931	     45.03125828	     83.69384958	      0.00000000	      0.00000000
      3.76500000	     -9.60370998	    -10.52481428	      3.96911965	     -0.31666548	      0.82379353	     -0.98037857	     57.41401735	      0.59297192	     -6.37775028	     10.53212331	      0.18382023	    -19.87136260	      0.00000000	      0.00000000	     54.33640020	     -8.17223564	      1.22416475	     73.39210709	      1.28093391	     16.50061159	      0.00000000	      0.00000000	     -9.21177250	      2.85469222	      3.51025759	     89.89976938	    -12.98639392	     19.56291721	     28.16365997	     81.02400310	      0.00000000	      0.00000000	     89.94214191	    -27.89788499	     18.49762966	     45.03224340	     83.80502507	      0.00000000	      0.00000000
      3.77000000	     -9.63722386	    -10.58751140	      3.97851637	     -0.31641592	      0.82529124	     -0.98028907	     57.35220886	      0.62438587	     -6.41842313	     10.56494119	      0.18439301	    -19.84681925	      0.00000000	      0.00000000	     54.18871108	     -8.23393864	      1.25637476	     73.05691992	      1.27508379	     16.33906330	      0.00000000	      0.00000000	     -9.08667808	      2.89875687	      3.48788148	     89.89892353	    -12.99133816	     19.57522551	     28.09783374	     81.04781167	      0.00000000	      0.00000000	     89.94200217	    -27.92067753	     18.43548493	     45.06495333	     83.80883049	      0.00000000	      0.00000000
